<mxfile host="app.diagrams.net" modified="2023-07-10T02:21:02.954Z" agent="Mozilla/5.0 (Windows NT 10.0; Win64; x64) AppleWebKit/537.36 (KHTML, like Gecko) Chrome/114.0.0.0 Safari/537.36" etag="WaS7_C7QOcRuFU5ZLRSw" version="21.6.1" type="github">
  <diagram name="페이지-1" id="uKq0jB49tgOf6U7F-7EN">
    <mxGraphModel dx="1434" dy="788" grid="1" gridSize="10" guides="1" tooltips="1" connect="1" arrows="1" fold="1" page="1" pageScale="1" pageWidth="827" pageHeight="1169" math="0" shadow="0">
      <root>
        <mxCell id="0" />
        <mxCell id="1" parent="0" />
        <mxCell id="FPdnZeY-VH76FI8FRAlT-1" value="Entity" style="whiteSpace=wrap;html=1;align=center;" vertex="1" parent="1">
          <mxGeometry x="180" y="270" width="100" height="40" as="geometry" />
        </mxCell>
        <mxCell id="FPdnZeY-VH76FI8FRAlT-2" value="Relationship" style="shape=rhombus;perimeter=rhombusPerimeter;whiteSpace=wrap;html=1;align=center;" vertex="1" parent="1">
          <mxGeometry x="340" y="260" width="120" height="60" as="geometry" />
        </mxCell>
        <mxCell id="FPdnZeY-VH76FI8FRAlT-3" value="Entity" style="whiteSpace=wrap;html=1;align=center;" vertex="1" parent="1">
          <mxGeometry x="520" y="270" width="100" height="40" as="geometry" />
        </mxCell>
        <mxCell id="FPdnZeY-VH76FI8FRAlT-4" value="" style="endArrow=none;html=1;rounded=0;exitX=1;exitY=0.5;exitDx=0;exitDy=0;" edge="1" parent="1" source="FPdnZeY-VH76FI8FRAlT-2" target="FPdnZeY-VH76FI8FRAlT-3">
          <mxGeometry relative="1" as="geometry">
            <mxPoint x="430" y="390" as="sourcePoint" />
            <mxPoint x="590" y="390" as="targetPoint" />
          </mxGeometry>
        </mxCell>
        <mxCell id="FPdnZeY-VH76FI8FRAlT-5" value="N" style="resizable=0;html=1;whiteSpace=wrap;align=right;verticalAlign=bottom;" connectable="0" vertex="1" parent="FPdnZeY-VH76FI8FRAlT-4">
          <mxGeometry x="1" relative="1" as="geometry" />
        </mxCell>
        <mxCell id="FPdnZeY-VH76FI8FRAlT-6" value="" style="endArrow=none;html=1;rounded=0;entryX=1;entryY=0.5;entryDx=0;entryDy=0;exitX=0;exitY=0.5;exitDx=0;exitDy=0;" edge="1" parent="1" source="FPdnZeY-VH76FI8FRAlT-2" target="FPdnZeY-VH76FI8FRAlT-1">
          <mxGeometry relative="1" as="geometry">
            <mxPoint x="430" y="390" as="sourcePoint" />
            <mxPoint x="590" y="390" as="targetPoint" />
          </mxGeometry>
        </mxCell>
        <mxCell id="FPdnZeY-VH76FI8FRAlT-7" value="1" style="resizable=0;html=1;whiteSpace=wrap;align=right;verticalAlign=bottom;" connectable="0" vertex="1" parent="FPdnZeY-VH76FI8FRAlT-6">
          <mxGeometry x="1" relative="1" as="geometry" />
        </mxCell>
      </root>
    </mxGraphModel>
  </diagram>
</mxfile>
